<?xml version="1.0" encoding="utf-8"?>
<!-- Generator: Adobe Illustrator 25.2.1, SVG Export Plug-In . SVG Version: 6.00 Build 0)  -->
<svg version="1.1" id="Layer_1" xmlns="http://www.w3.org/2000/svg" xmlns:xlink="http://www.w3.org/1999/xlink" x="0px" y="0px"
	 viewBox="0 0 512 512" width="32px" heigth="32px" style="enable-background:new 0 0 512 512;" xml:space="preserve">
<path d="M387.9,29.5l-1-0.4c-1.7-0.5-3.4-0.9-5.1-0.9c-4.4-0.2-8.3,1.1-12.3,5.6l-27.2,32.3l27.4,23.5l28.7-31c4-4.6,4.8-8.5,4-12.7
	c-0.8-4.3-3.5-8.8-7.5-12.2C392.8,32,390.4,30.5,387.9,29.5L387.9,29.5z M330.8,79.8L77.5,380.5l12.9,11l267.2-288.7L330.8,79.8z
	 M396.3,37.4c-4,1.7-7,4.5-8.8,10.3l-11.2,40.9l34.6,9.5l13.1-40.3c1.8-5.8,0.8-9.8-1.6-13.1c-2.6-3.6-6.8-6.5-11.9-7.8
	c-4.4-1.2-9-1.2-12.7-0.1C397.9,36.8,396.3,37.4,396.3,37.4z M371.5,105.9l-104.4,381l16.2,4.4l122.1-376L371.5,105.9z"/>
</svg>
