<?xml version="1.0" encoding="utf-8"?>
<!-- Generator: Adobe Illustrator 25.2.1, SVG Export Plug-In . SVG Version: 6.00 Build 0)  -->
<svg version="1.1" id="Layer_1" xmlns="http://www.w3.org/2000/svg" xmlns:xlink="http://www.w3.org/1999/xlink" x="0px" y="0px"
	 viewBox="0 0 512 512" width="66px" heigth="46px" opacity="0.9" style="enable-background:new 0 0 512 512;" xml:space="preserve">
<style type="text/css">
	.st0{fill:#e1b486;stroke:#000000;stroke-width:9;stroke-miterlimit:10;} //
</style>
<path class="st0" d="M392.6,25.8l-1-0.4c-1.7-0.5-3.4-0.9-5.1-0.9c-4.4-0.2-8.3,1.1-12.3,5.6l-27.2,32.3l27.4,23.5l28.7-31
	c4-4.6,4.8-8.5,4-12.7c-0.8-4.3-3.5-8.8-7.5-12.2C397.6,28.2,395.1,26.8,392.6,25.8L392.6,25.8z M335.6,76.1L82.3,376.8l12.9,11
	L362.3,99L335.6,76.1z M401,33.6c-4,1.7-7,4.5-8.8,10.3L381,84.9l34.6,9.5l13.1-40.3c1.8-5.8,0.8-9.8-1.6-13.1
	c-2.6-3.6-6.8-6.5-11.9-7.8c-4.4-1.2-9-1.2-12.7-0.1C402.6,33.1,401,33.6,401,33.6z M376.3,102.1l-104.4,381l16.2,4.4l122.1-376
	L376.3,102.1z"/>
</svg>
