<?xml version="1.0" encoding="utf-8"?>
<!-- Generator: Adobe Illustrator 25.2.1, SVG Export Plug-In . SVG Version: 6.00 Build 0)  -->
<svg version="1.1" id="Layer_1" xmlns="http://www.w3.org/2000/svg" xmlns:xlink="http://www.w3.org/1999/xlink" x="0px" y="0px"
	 viewBox="0 0 512 512" width="66px" heigth="46px" opacity="0.9" style="enable-background:new 0 0 512 512;" xml:space="preserve">
<style type="text/css">
	.st0{fill:#e1b486;stroke:#000000;stroke-width:12;stroke-miterlimit:10;}
</style>
<path class="st0" d="M253.8,22.9h-1.1c-1.8,0.1-3.5,0.3-5.1,0.9c-4.2,1.3-7.4,3.8-9.6,9.5l-14.5,39.6l33.8,12.7l16.4-38.9
	c2.2-5.7,1.6-9.6-0.6-13.3c-2.2-3.8-6.3-7-11.2-8.9C259.3,23.5,256.5,22.9,253.8,22.9L253.8,22.9z M217.4,89.6L82.2,458.8l15.8,5.9
	l152.3-362.7L217.4,89.6z M407.2,101.2c-4.3,0.2-8.1,1.8-11.8,6.7l-24.5,34.6l29.3,20.8l26.1-33.4c3.7-4.8,4.1-8.9,3-12.9
	c-1.2-4.3-4.2-8.4-8.5-11.4c-3.7-2.7-8-4.2-11.9-4.4C408.9,101.2,407.2,101.2,407.2,101.2z M360.5,157.1L132.1,479.4l13.7,9.7
	l243.3-311.6L360.5,157.1z"/>
</svg>
