<svg width="112" height="61" viewBox="0 0 152 61" fill="none" xmlns="http://www.w3.org/2000/svg">
<circle cx="29.4545" cy="30.1818" r="29.4545" fill="#842028"/>
<path d="M19.9356 25.3041L3.49463 43.9844C19.0409 72.5675 55.6137 58.8386 58.4098 36.5573L39.1727 17.2018L24.8567 31.6059L19.9356 25.3041Z" fill="#E1B486"/>
<path d="M12.98 43.6609L20.238 28.4108L21.1596 29.6534L21.3901 28.4108L22.1965 28.7497V28.1848L24.9615 31.5738L12.98 43.6609Z" fill="#9F3434"/>
<path d="M19.9692 58.7871L38.4568 25.1494L42.0641 26.9434V23.6918L49.2788 29.4102L46.1224 24.3645L58.4098 36.362C57.7335 48.023 42.515 65.0661 19.9692 58.7871Z" fill="#9F3434"/>
<path d="M89.072 23.216C87.984 22.5973 86.8213 22.2293 85.584 22.112V32H84V22.112C82.752 22.2293 81.584 22.5973 80.496 23.216L79.936 21.952C81.3653 21.0987 82.976 20.672 84.768 20.672C86.5813 20.672 88.2027 21.0987 89.632 21.952L89.072 23.216ZM97.8703 20.672C99.3636 20.672 100.542 21.1093 101.406 21.984C102.27 22.848 102.702 24.0907 102.702 25.712V32H101.102V28.912H94.6383V32H93.0703V25.712C93.0703 24.0907 93.5023 22.848 94.3663 21.984C95.2303 21.1093 96.3983 20.672 97.8703 20.672ZM101.102 27.52V25.568C101.102 24.4267 100.814 23.5627 100.238 22.976C99.6729 22.3893 98.8836 22.096 97.8703 22.096C96.8569 22.096 96.0623 22.3893 95.4862 22.976C94.9209 23.5627 94.6383 24.4267 94.6383 25.568V27.52H101.102ZM110.811 22.192V30.608H112.971V32H107.051V30.608H109.211V22.192H107.051V20.8H112.971V22.192H110.811ZM120.684 32.128C119.841 32.128 119.025 32 118.236 31.744C117.457 31.4773 116.844 31.136 116.396 30.72L116.988 29.472C117.415 29.856 117.959 30.1707 118.62 30.416C119.292 30.6507 119.98 30.768 120.684 30.768C121.612 30.768 122.305 30.6133 122.764 30.304C123.223 29.984 123.452 29.5627 123.452 29.04C123.452 28.656 123.324 28.3467 123.068 28.112C122.823 27.8667 122.513 27.68 122.14 27.552C121.777 27.424 121.26 27.28 120.588 27.12C119.745 26.9173 119.063 26.7147 118.54 26.512C118.028 26.3093 117.585 26 117.212 25.584C116.849 25.1573 116.668 24.5867 116.668 23.872C116.668 23.2747 116.823 22.736 117.132 22.256C117.452 21.776 117.932 21.392 118.572 21.104C119.212 20.816 120.007 20.672 120.956 20.672C121.617 20.672 122.268 20.7573 122.908 20.928C123.548 21.0987 124.097 21.344 124.556 21.664L124.028 22.944C123.559 22.6453 123.057 22.4213 122.524 22.272C121.991 22.112 121.468 22.032 120.956 22.032C120.049 22.032 119.367 22.1973 118.908 22.528C118.46 22.8587 118.236 23.2853 118.236 23.808C118.236 24.192 118.364 24.5067 118.62 24.752C118.876 24.9867 119.191 25.1733 119.564 25.312C119.948 25.44 120.465 25.5787 121.116 25.728C121.959 25.9307 122.636 26.1333 123.148 26.336C123.66 26.5387 124.097 26.848 124.46 27.264C124.833 27.68 125.02 28.24 125.02 28.944C125.02 29.5307 124.86 30.0693 124.54 30.56C124.22 31.04 123.735 31.424 123.084 31.712C122.433 31.9893 121.633 32.128 120.684 32.128ZM139.069 20.8V32H137.47V27.008H131.037V32H129.437V20.8H131.037V25.616H137.47V20.8H139.069ZM147.27 22.192V30.608H149.43V32H143.51V30.608H145.67V22.192H143.51V20.8H149.43V22.192H147.27ZM84.944 52.128C84.1013 52.128 83.2853 52 82.496 51.744C81.7173 51.4773 81.104 51.136 80.656 50.72L81.248 49.472C81.6747 49.856 82.2187 50.1707 82.88 50.416C83.552 50.6507 84.24 50.768 84.944 50.768C85.872 50.768 86.5653 50.6133 87.024 50.304C87.4827 49.984 87.712 49.5627 87.712 49.04C87.712 48.656 87.584 48.3467 87.328 48.112C87.0827 47.8667 86.7733 47.68 86.4 47.552C86.0373 47.424 85.52 47.28 84.848 47.12C84.0053 46.9173 83.3227 46.7147 82.8 46.512C82.288 46.3093 81.8453 46 81.472 45.584C81.1093 45.1573 80.928 44.5867 80.928 43.872C80.928 43.2747 81.0827 42.736 81.392 42.256C81.712 41.776 82.192 41.392 82.832 41.104C83.472 40.816 84.2667 40.672 85.216 40.672C85.8773 40.672 86.528 40.7573 87.168 40.928C87.808 41.0987 88.3573 41.344 88.816 41.664L88.288 42.944C87.8187 42.6453 87.3173 42.4213 86.784 42.272C86.2507 42.112 85.728 42.032 85.216 42.032C84.3093 42.032 83.6267 42.1973 83.168 42.528C82.72 42.8587 82.496 43.2853 82.496 43.808C82.496 44.192 82.624 44.5067 82.88 44.752C83.136 44.9867 83.4507 45.1733 83.824 45.312C84.208 45.44 84.7253 45.5787 85.376 45.728C86.2187 45.9307 86.896 46.1333 87.408 46.336C87.92 46.5387 88.3573 46.848 88.72 47.264C89.0933 47.68 89.28 48.24 89.28 48.944C89.28 49.5307 89.12 50.0693 88.8 50.56C88.48 51.04 87.9947 51.424 87.344 51.712C86.6933 51.9893 85.8933 52.128 84.944 52.128ZM103.042 40.8V52H101.506V50.416C100.748 51.5573 99.5322 52.128 97.8575 52.128C96.5242 52.128 95.4788 51.7227 94.7215 50.912C93.9748 50.1013 93.6015 48.944 93.6015 47.44V40.8H95.2015V47.392C95.2015 48.4693 95.4682 49.2907 96.0015 49.856C96.5348 50.4213 97.2655 50.704 98.1935 50.704C99.1962 50.704 99.9908 50.4053 100.578 49.808C101.164 49.2107 101.458 48.3253 101.458 47.152V40.8H103.042ZM111.745 52.128C110.902 52.128 110.086 52 109.297 51.744C108.518 51.4773 107.905 51.136 107.457 50.72L108.049 49.472C108.475 49.856 109.019 50.1707 109.681 50.416C110.353 50.6507 111.041 50.768 111.745 50.768C112.673 50.768 113.366 50.6133 113.825 50.304C114.283 49.984 114.513 49.5627 114.513 49.04C114.513 48.656 114.385 48.3467 114.129 48.112C113.883 47.8667 113.574 47.68 113.201 47.552C112.838 47.424 112.321 47.28 111.649 47.12C110.806 46.9173 110.123 46.7147 109.601 46.512C109.089 46.3093 108.646 46 108.273 45.584C107.91 45.1573 107.729 44.5867 107.729 43.872C107.729 43.2747 107.883 42.736 108.193 42.256C108.513 41.776 108.993 41.392 109.633 41.104C110.273 40.816 111.067 40.672 112.017 40.672C112.678 40.672 113.329 40.7573 113.969 40.928C114.609 41.0987 115.158 41.344 115.617 41.664L115.089 42.944C114.619 42.6453 114.118 42.4213 113.585 42.272C113.051 42.112 112.529 42.032 112.017 42.032C111.11 42.032 110.427 42.1973 109.969 42.528C109.521 42.8587 109.297 43.2853 109.297 43.808C109.297 44.192 109.425 44.5067 109.681 44.752C109.937 44.9867 110.251 45.1733 110.625 45.312C111.009 45.44 111.526 45.5787 112.177 45.728C113.019 45.9307 113.697 46.1333 114.209 46.336C114.721 46.5387 115.158 46.848 115.521 47.264C115.894 47.68 116.081 48.24 116.081 48.944C116.081 49.5307 115.921 50.0693 115.601 50.56C115.281 51.04 114.795 51.424 114.145 51.712C113.494 51.9893 112.694 52.128 111.745 52.128ZM130.13 40.8V52H128.53V47.008H122.098V52H120.498V40.8H122.098V45.616H128.53V40.8H130.13ZM138.331 42.192V50.608H140.49V52H134.57V50.608H136.73V42.192H134.57V40.8H140.49V42.192H138.331Z" fill="#E1B486"/>
</svg>
